<svg width="153" height="175" fill="none" xmlns="http://www.w3.org/2000/svg"><path d="M37.97 34.88a9.62 9.62 0 01-3.5 7.65c-1.06.88-2.3 1.6-3.69 2.16-1.37.54-2.81.97-4.31 1.28-1.5.31-3.01.52-4.53.62a54.25 54.25 0 01-12.38-.47 38.18 38.18 0 01-4.06-.9c-1.33-.4-2.6-.89-3.78-1.47L1.66 3.5c1.16-.48 2.4-.9 3.71-1.28 1.32-.4 2.65-.72 4-.97 1.38-.27 2.74-.47 4.1-.6a36.78 36.78 0 018.4.07c1.53.19 2.98.5 4.38.94 1.4.43 2.7 1 3.9 1.72 1.21.68 2.27 1.54 3.16 2.56.92 1.02 1.63 2.2 2.13 3.56a13 13 0 01.28 7.97A9.11 9.11 0 0132 22.3c-.9.57-1.9.98-3.03 1.25 1.35.36 2.58.88 3.69 1.57 1.12.68 2.07 1.52 2.84 2.5a11.66 11.66 0 012.47 7.25zM22.09 17.05c0-.6-.12-1.11-.37-1.53a3.53 3.53 0 00-2.13-1.66 4.02 4.02 0 00-2.34 0 11 11 0 00-1.16.44l-.18 6.94c.48 0 1.07-.04 1.78-.13.7-.08 1.38-.26 2.03-.53.67-.29 1.23-.7 1.69-1.25a3.5 3.5 0 00.68-2.28zm-4.43 10.19c-.6 0-1.2.06-1.75.19l-.13 7.12.9.19a6.85 6.85 0 002.35-.06c.52-.1 1.01-.3 1.47-.56a3.44 3.44 0 001.6-3.06c0-.8-.16-1.45-.47-1.95a3.58 3.58 0 00-2.53-1.72c-.53-.1-1-.15-1.44-.15zm56.25-6.5c0 1.81-.13 3.63-.38 5.44-3.56.23-7.1.6-10.62 1.12l-10.57 1.5a7.8 7.8 0 002.53 3.6 6.63 6.63 0 004.16 1.34c.83 0 1.74-.16 2.72-.47 1-.31 1.99-.7 2.97-1.16.98-.47 1.92-.98 2.81-1.53.9-.54 1.67-1.03 2.31-1.46l-1.5 14.18a13.6 13.6 0 01-2.65 1.6c-.94.43-1.92.79-2.94 1.06s-2.05.47-3.1.6a25.7 25.7 0 01-3.06.18 17.15 17.15 0 01-10.31-3.19 17.95 17.95 0 01-3.62-3.6 20.91 20.91 0 01-2.6-4.5 25.98 25.98 0 01-1.56-5.15 28.6 28.6 0 01-.53-5.5c0-1.93.18-3.87.53-5.81.35-1.94.89-3.8 1.6-5.6.72-1.79 1.63-3.44 2.71-4.96a19.63 19.63 0 013.85-4.03 17.15 17.15 0 014.93-2.7c1.86-.64 3.9-.96 6.13-.96 1.85 0 3.54.26 5.06.78 1.54.5 2.9 1.21 4.1 2.13 1.2.9 2.25 1.96 3.12 3.21.9 1.25 1.63 2.63 2.19 4.13a22.8 22.8 0 011.28 4.72c.29 1.64.44 3.32.44 5.03zm-12.5-1.63c0-.58-.07-1.17-.2-1.78a5.44 5.44 0 00-.62-1.68c-.27-.5-.63-.91-1.09-1.22a2.85 2.85 0 00-1.72-.5c-.83 0-1.57.23-2.22.69-.62.43-1.16 1-1.62 1.68-.46.67-.84 1.4-1.13 2.19-.29.8-.5 1.52-.65 2.19l9.25-.88v-.68zM108 30c0 2.85-.5 5.32-1.5 7.4a14.06 14.06 0 01-4.06 5.13 17.2 17.2 0 01-6.03 2.97c-2.3.63-4.76.94-7.41.94-1.02 0-2.15-.14-3.38-.4a44.32 44.32 0 01-7.3-2.32 85.99 85.99 0 01-3.07-1.34l1.38-12.26a22.38 22.38 0 005.87 2.44 26.22 26.22 0 007.81.78c.56-.04 1.1-.13 1.6-.28.52-.16.95-.4 1.3-.72.36-.3.54-.76.54-1.34 0-.4-.13-.73-.38-1-.25-.3-.57-.52-.96-.69-.4-.18-.85-.32-1.35-.4a12.54 12.54 0 00-2.81-.29h-1c-1.8 0-3.43-.28-4.9-.84a11.2 11.2 0 01-3.79-2.37 11.02 11.02 0 01-2.44-3.75 13.26 13.26 0 01-.87-4.91c0-2.46.49-4.66 1.47-6.6 1-1.95 2.32-3.6 3.97-4.96a18 18 0 015.72-3.16c2.14-.73 4.36-1.1 6.65-1.1a41.17 41.17 0 016.38.5c1.08.2 2.13.43 3.15.73 1.02.29 2 .65 2.91 1.09l-1.19 12.69a35.9 35.9 0 00-4.47-1.19 21.4 21.4 0 00-8.34-.16c-.48.1-.9.25-1.28.44-.38.17-.68.4-.9.69-.24.29-.34.63-.32 1.03.02.46.19.81.5 1.06.33.25.75.44 1.25.57.52.1 1.08.15 1.69.15a53.59 53.59 0 003.53-.12c.52-.05.95-.06 1.28-.04 1.67.1 3.17.46 4.5 1.07a9.86 9.86 0 015.5 6c.5 1.37.75 2.9.75 4.56zm34.38-28.06l-.32 13.25-9.31.37-1.13 29-13.18.69-1.19-29-9.31.5L108.3 2l34.06-.06zM38 145.19c0 2.02-.3 3.81-.9 5.37a13.34 13.34 0 01-2.5 4.13 14.71 14.71 0 01-3.7 2.97 24.9 24.9 0 01-4.56 1.97c-1.6.5-3.27.87-5 1.12a42.9 42.9 0 01-5.09.38v13.3H1.69v-6.93l.03-6.69c.02-2.23.03-4.47.03-6.72l.06-6.97c.04-2.54.05-5.08.03-7.62a136 136 0 01.16-7.69 56.1 56.1 0 0116.25-2.37c1.6 0 3.2.13 4.81.4 1.6.25 3.14.66 4.6 1.22 1.48.56 2.84 1.27 4.09 2.13a13.66 13.66 0 015.44 7c.54 1.5.81 3.16.81 5zm-13.88 1.06c0-1.35-.41-2.4-1.25-3.16a4.44 4.44 0 00-3.18-1.15 12.39 12.39 0 00-2.69.37l-.38 9.13c.3.04.58.06.85.06h.84a6.26 6.26 0 004.03-1.44c.55-.48.97-1.03 1.29-1.65.33-.65.5-1.37.5-2.16zm43.07 11.19l-1.31 13.87-26.32 2.06 1-44.62h16.25l-2.31 28.69h12.69zm40.87 13.87l-15.5 2-1.87-7.06h-7.13L82 173.31l-15.94-1.56 12.44-41.63 17.38-.87 12.18 42.06zm-18.5-14.62L87.2 145.8l-2.31 10.88h4.68zm57.94 1.5c0 2.35-.03 4.69-.1 7-.03 2.29-.1 4.6-.21 6.94l-18-.32c.62-3.69 1.16-7.36 1.62-11.03a90.22 90.22 0 00.66-12.47 43.07 43.07 0 00-.4-4.37c-.11-.81-.27-1.56-.48-2.22a5.36 5.36 0 00-.72-1.63c-.27-.43-.6-.65-1-.65-.7 0-1.3.2-1.8.62a5.2 5.2 0 00-1.23 1.63c-.3.64-.56 1.37-.75 2.19a24.79 24.79 0 00-.62 4.75l-.03 1.75c-.1 3.68-.19 7.35-.25 11-.06 3.62-.15 7.29-.25 11l-15.94.68c.42-7.35.81-14.66 1.19-21.94.4-7.27.7-14.58.94-21.93l14.75-.75-.13 5a21 21 0 011.88-2 12.14 12.14 0 014.62-2.66 11.54 11.54 0 017.4.47c1.34.58 2.48 1.38 3.44 2.38s1.76 2.18 2.41 3.56c.65 1.35 1.17 2.8 1.56 4.34.4 1.54.7 3.16.9 4.84a92.62 92.62 0 01.53 9.66l.01 4.16z" fill="#fff"/><path d="M34.69 65.94l-.31 13.25-9.32.37-1.12 29-13.19.69-1.19-29-9.31.5L.63 66l34.06-.06zm39.78 20.12c0 1.9-.22 3.73-.66 5.5a21.1 21.1 0 01-4.9 9.19 19.5 19.5 0 01-8.75 5.44c-1.73.5-3.57.75-5.5.75a19.82 19.82 0 01-17.22-9.9 20.53 20.53 0 01-2.66-10.16 21.98 21.98 0 012.53-10.25 21.73 21.73 0 013-4.25 19.1 19.1 0 018.63-5.53c1.69-.53 3.47-.79 5.34-.79 3.02 0 5.77.47 8.25 1.4A17.63 17.63 0 0173 77.82c.98 2.46 1.47 5.21 1.47 8.25zm-13.88.81a8.34 8.34 0 00-1.53-4.84 5.55 5.55 0 00-4.4-2.22 6.07 6.07 0 00-5.88 4.16c-.29.81-.44 1.68-.44 2.6 0 .87.13 1.74.38 2.62a7.8 7.8 0 001.12 2.37c.5.71 1.12 1.28 1.85 1.72a5.92 5.92 0 007.22-1.47c.54-.66.95-1.42 1.25-2.28.29-.85.43-1.74.43-2.66zM113.91 66a618.98 618.98 0 00-2.41 21.9c-.67 7.26-1.3 14.56-1.9 21.91l-12.82.94.56-4.81c-.41.48-.9.9-1.47 1.25a8.58 8.58 0 01-3.68 1.34 11.94 11.94 0 01-5.9-.72 13.93 13.93 0 01-3.45-2.12 17.42 17.42 0 01-2.8-3.1 22.82 22.82 0 01-2.13-3.72c-.57-1.3-1-2.64-1.32-4-.29-1.35-.43-2.66-.43-3.93a118.5 118.5 0 011.22-17.88c.3-1.98.7-3.87 1.15-5.69 2.54.13 5.1.24 7.66.35 2.56.1 5.11.13 7.65.1l-1.43 5.46c-.46 1.81-.88 3.65-1.25 5.5a71.15 71.15 0 00-.91 5.53 45.8 45.8 0 00-.28 7.5c.04.81.14 1.62.31 2.4.19.8.46 1.5.81 2.1.38.59.9.88 1.57.88.79 0 1.5-.34 2.12-1a9.52 9.52 0 001.66-2.75c.48-1.15.88-2.47 1.22-3.97a78.8 78.8 0 001.47-9.66c.14-1.66.25-3.23.3-4.69.1-1.47.14-2.8.16-3.96.05-1.17.07-2.08.07-2.72a23.23 23.23 0 00-.13-2.44 266.8 266.8 0 008.06.13h3.13c1.06-.03 2.12-.07 3.19-.13zm38.5 13.88c0 1.62-.15 3.1-.44 4.43-.27 1.31-.71 2.52-1.31 3.63A13 13 0 01148.3 91c-.96.94-2.11 1.83-3.47 2.69l7.44 13.25-14.06 2.75-4.81-13.31-3.88.12-.56 13h-13.44c.1-4.75.2-9.48.28-14.19.1-4.7.22-9.44.35-14.19l.12-7.12c.04-2.35.13-4.73.25-7.13a40.87 40.87 0 0112.9-2.56c1.49-.08 3-.12 4.54-.12 2.37 0 4.66.33 6.87 1 2.23.64 4.2 1.62 5.91 2.94a14.37 14.37 0 015.66 11.75zm-14 1c0-.88-.13-1.68-.38-2.41a4.9 4.9 0 00-2.81-3.13 5.85 5.85 0 00-2.44-.47c-.41 0-.82.04-1.22.1-.4.04-.78.11-1.15.22l-.5 11.62h.75c.9 0 1.8-.11 2.72-.34a7.95 7.95 0 002.5-1.06 5.68 5.68 0 001.8-1.85c.49-.75.73-1.64.73-2.69z" fill="#EC1F46"/></svg>